<svg version="1.1" id="Layer_1" xmlns="http://www.w3.org/2000/svg" xmlns:xlink="http://www.w3.org/1999/xlink" x="0px" y="0px"
	 width="100%" viewBox="0 0 492 508" enable-background="new 0 0 492 508" xml:space="preserve">
<path fill="#010101" opacity="1.000000" stroke="none" 
	d="
M223.000000,509.000000 
	C148.666687,509.000000 74.833366,509.000000 1.000040,509.000000 
	C1.000026,339.666718 1.000026,170.333450 1.000013,1.000131 
	C164.999893,1.000087 328.999786,1.000087 492.999756,1.000044 
	C492.999847,170.333191 492.999847,339.666382 492.999939,508.999786 
	C403.166656,509.000000 313.333344,509.000000 223.000000,509.000000 
M417.575897,183.798920 
	C417.575897,183.798920 417.629333,183.758301 417.592926,182.836395 
	C414.698853,181.814301 411.858246,180.114059 408.901947,179.880844 
	C390.571686,178.434891 373.318726,182.693970 356.106598,190.621994 
	C352.211212,193.614395 348.315826,196.606796 344.420410,199.599182 
	C344.688171,200.097443 344.955933,200.595703 345.223663,201.093964 
	C349.137543,201.093964 353.051453,201.093964 357.239197,201.758591 
	C362.713348,203.034485 366.060852,206.972137 367.779907,211.784302 
	C369.624634,216.948410 370.324005,222.521683 371.515656,228.519775 
	C371.561035,228.715714 371.606445,228.911667 371.302734,229.669891 
	C371.417419,230.080978 371.532104,230.492065 371.601746,231.521103 
	C373.577728,233.374313 375.553741,235.227509 377.649414,237.974823 
	C377.249817,245.614914 376.588440,253.253479 376.544556,260.895630 
	C376.516235,265.825043 377.183655,270.794434 377.992218,275.670837 
	C378.236572,277.144470 380.168457,278.266541 381.023254,279.727600 
	C382.302094,281.913422 382.755798,284.959869 384.554993,286.382629 
	C388.020660,289.123199 392.007538,291.403442 396.097870,293.107361 
	C401.833252,295.496460 407.781036,297.481262 413.784912,299.091003 
	C419.924500,300.737152 426.215973,302.574432 432.487854,302.762268 
	C439.107849,302.960510 441.506042,298.197998 437.574829,292.733002 
	C433.848297,287.552612 433.632568,281.672729 432.032471,276.052765 
	C431.080231,272.708252 430.364105,269.296509 430.192505,265.381226 
	C430.483093,261.633240 431.079834,257.875946 430.966187,254.140244 
	C430.877258,251.216797 430.309387,247.962723 425.265686,248.067215 
	C422.071289,249.337601 418.963318,250.946411 415.659973,251.790329 
	C411.778229,252.782013 410.096863,255.091034 409.214172,258.939758 
	C407.828674,259.095703 406.443176,259.251678 404.526917,259.042023 
	C400.477081,257.017975 396.319611,255.180954 392.402405,252.926422 
	C386.388580,249.465164 386.109802,242.458237 383.052612,236.237167 
	C383.390228,234.502060 383.727844,232.766937 384.912781,230.937317 
	C390.597168,230.261047 396.281555,229.584793 402.718781,229.139679 
	C403.133942,229.458557 403.549103,229.777420 403.897400,230.870682 
	C404.297638,235.009949 406.013733,237.996170 410.284668,239.415802 
	C418.707031,242.215302 419.649017,234.897232 422.684845,229.198975 
	C423.455078,231.635620 423.705475,232.943039 424.265350,234.100815 
	C425.848083,237.373779 427.399933,241.845856 431.637878,240.764008 
	C433.669922,240.245255 435.427429,235.929413 436.033478,233.063431 
	C437.757111,224.912430 435.418549,223.139008 427.047577,224.882599 
	C424.636871,225.384720 421.563416,225.409622 419.496277,224.320267 
	C414.455627,221.663925 409.360077,221.492020 403.460266,222.165771 
	C402.950684,222.354080 402.441101,222.542389 401.109406,222.548492 
	C396.925110,223.430267 392.740845,224.312027 388.556549,225.193787 
	C389.831970,223.344818 391.270721,222.297714 392.743530,221.300858 
	C395.395142,219.506134 396.005096,217.437866 394.182495,214.561844 
	C391.279236,209.980591 389.280945,205.283569 395.987061,201.007767 
	C395.566193,200.634506 395.145325,200.261246 394.724457,199.887985 
	C388.496979,199.887985 382.269501,199.887985 375.927856,199.416367 
	C375.742279,199.110168 375.470459,198.958832 375.409515,198.143875 
	C386.419342,198.852844 397.429199,199.561829 408.510559,200.318161 
	C408.510559,200.318161 408.539764,200.404190 409.220856,200.916275 
	C410.803955,201.341568 412.426727,201.656784 413.963257,202.211182 
	C420.633392,204.617859 424.059845,201.612625 423.513947,193.346375 
	C422.336639,191.247131 421.159363,189.147888 419.826447,186.466995 
	C419.490417,185.979248 419.154358,185.491501 418.928497,184.407349 
	C418.496552,184.198837 418.064606,183.990311 417.575897,183.798920 
M169.256058,189.516647 
	C170.092224,184.100082 167.642746,179.683807 165.670181,175.122330 
	C165.046982,175.346832 164.423798,175.571320 163.800613,175.795822 
	C165.889099,180.534058 167.977585,185.272293 170.665680,190.357758 
	C170.726669,191.033432 170.602448,192.196381 170.880127,192.301926 
	C172.205933,192.805817 173.640808,193.022720 175.625137,193.476074 
	C178.345612,189.445160 181.451492,184.843185 184.811569,179.864594 
	C187.016769,182.868790 189.013626,185.589157 191.010483,188.309525 
	C191.398926,188.029114 191.787369,187.748703 192.175812,187.468292 
	C189.835709,183.834839 187.495590,180.201385 184.897736,176.167725 
	C180.939804,182.058578 177.547318,187.107834 173.919540,192.507278 
	C172.407303,191.566940 171.208252,190.821335 169.256058,189.516647 
M249.686813,244.910767 
	C250.098816,244.586533 250.510818,244.262299 250.922821,243.938065 
	C250.283447,243.620956 249.644089,243.303848 248.530823,242.285461 
	C248.530823,231.235184 248.530823,220.184906 248.530823,208.549286 
	C243.483215,209.717896 239.417130,210.659286 235.854797,211.484024 
	C239.702805,220.250778 237.905579,228.604858 236.263275,237.326019 
	C233.961060,238.848785 231.658844,240.371567 229.356644,241.894348 
	C227.860428,239.548309 225.782272,237.372910 225.030289,234.808624 
	C224.265640,232.201111 224.788528,229.210388 224.781876,226.387390 
	C224.768311,220.634735 224.777802,214.882034 224.777802,208.530350 
	C219.879486,209.671021 215.690002,210.646622 212.376709,211.418182 
	C213.271774,214.198135 214.423599,216.276215 214.534531,218.408463 
	C214.836136,224.206604 214.682571,230.027786 214.737228,235.839569 
	C214.787491,241.184158 217.966339,243.940338 222.740677,245.218781 
	C229.397720,247.001358 234.033493,243.713730 237.984940,239.827240 
	C237.984940,241.398834 237.984940,242.970444 237.984940,244.734421 
	C241.937943,244.734421 245.464188,244.734421 249.686813,244.910767 
M185.668915,246.161591 
	C187.154312,249.076630 188.270325,252.267822 190.200912,254.850021 
	C194.404205,260.471985 204.009613,259.964691 208.060150,254.062500 
	C206.788589,252.639893 205.493622,251.191055 204.235886,249.783905 
	C195.500076,253.928909 191.598007,252.999008 188.966431,246.031555 
	C200.671753,244.103165 207.585495,237.203766 209.493881,225.594086 
	C212.320877,208.395859 202.612778,190.565048 181.989578,194.337952 
	C177.990005,196.824493 172.779022,198.426529 170.204025,201.953217 
	C159.955688,215.989166 163.590729,242.793976 185.668915,246.161591 
M269.992584,208.582550 
	C269.305634,208.731644 268.618652,208.880722 267.112640,208.983353 
	C261.346832,208.616455 257.985596,211.991531 255.310471,216.503845 
	C250.828293,224.064178 252.491684,237.045853 258.955444,241.741898 
	C267.142059,247.689606 279.888458,246.804108 285.381836,240.122147 
	C283.871307,238.306412 282.324310,236.446823 279.959991,233.604797 
	C278.199493,240.186493 276.471924,244.689789 270.422272,243.827072 
	C265.804291,243.168518 262.688232,236.025070 263.449280,228.050903 
	C271.140289,228.050903 278.883331,228.050903 286.586975,228.050903 
	C287.331726,214.957718 281.687744,208.661835 269.992584,208.582550 
M102.677193,297.784882 
	C104.424026,293.659271 105.950272,289.422852 107.957733,285.428223 
	C114.862938,271.687622 117.416885,255.819046 127.826340,243.619232 
	C124.495468,243.619232 120.796196,243.619232 117.096924,243.619232 
	C117.001511,243.951920 116.906090,244.284607 116.810669,244.617310 
	C118.205681,245.408005 119.600685,246.198700 121.352425,247.191589 
	C119.210258,252.405090 117.130028,257.431519 115.077957,262.469452 
	C110.388695,273.981812 105.713211,285.499817 100.280952,297.038849 
	C94.590958,283.056458 88.858162,269.091248 83.238693,255.080597 
	C81.680763,251.196304 78.057648,246.874878 86.356041,243.744141 
	C76.219719,243.744141 67.832733,243.744141 59.305340,243.744141 
	C61.570004,246.160660 64.259789,247.878220 65.271164,250.297440 
	C71.737045,265.763855 77.822830,281.389008 84.057236,296.952454 
	C86.858635,303.945831 89.714462,310.917419 92.545593,317.898895 
	C93.116516,317.964844 93.687431,318.030762 94.258354,318.096680 
	C96.881287,311.476990 99.504211,304.857300 102.677193,297.784882 
M232.431137,309.501923 
	C233.067978,308.657959 233.704819,307.814026 235.049652,306.031799 
	C235.049652,310.500061 235.049652,313.892700 235.049652,316.982147 
	C241.718613,316.982147 247.876877,316.982147 254.035141,316.982147 
	C249.157455,314.912140 249.859131,311.037720 249.882248,307.441071 
	C249.919724,301.612152 250.525436,295.698273 249.742706,289.977448 
	C248.950317,284.186127 247.694641,278.089264 244.986679,273.008423 
	C239.889709,263.445099 225.249771,261.297638 215.032410,264.712402 
	C211.279404,265.966736 207.807922,268.063446 203.805893,269.967224 
	C207.286926,273.558868 209.836334,276.189270 212.527145,278.965576 
	C216.550262,266.422150 220.412766,265.347900 226.050446,266.058899 
	C231.343826,266.726471 234.953537,274.890900 234.263550,282.385590 
	C226.807663,284.482635 219.522934,286.058533 212.595352,288.605774 
	C204.827927,291.461792 200.116959,299.443878 201.004471,306.582855 
	C201.772644,312.761688 207.292038,318.337769 214.466064,318.437836 
	C218.646774,318.496124 222.859955,316.224487 227.714951,314.898956 
	C229.144608,313.312866 230.574265,311.726776 232.431137,309.501923 
M308.777771,285.542297 
	C308.229523,275.775696 303.015533,269.165619 294.119965,265.119446 
	C298.729340,263.311310 302.723694,261.744415 306.007080,260.456421 
	C303.531891,256.961090 301.421753,253.981262 299.123230,250.735382 
	C293.341400,260.930145 291.221405,262.261444 280.545074,263.293213 
	C278.397003,263.500793 276.226715,263.767181 274.143097,264.303467 
	C264.414551,266.807495 257.899933,273.636383 256.975616,282.137146 
	C255.720230,293.682495 259.241821,300.186371 269.639893,305.569427 
	C270.057922,305.785828 270.391754,306.164948 270.810730,306.505554 
	C257.503937,311.418152 255.289673,315.226349 260.050873,324.864685 
	C259.055908,326.339996 258.060944,327.815308 257.123901,329.204803 
	C265.157745,339.702728 287.842621,344.224976 302.290833,335.120239 
	C306.986969,332.160919 310.004944,327.697876 309.011475,321.653809 
	C308.106476,316.147919 303.877838,313.803467 299.135345,313.219910 
	C292.074493,312.351135 284.902496,312.398773 277.780670,312.003967 
	C275.760223,311.891968 273.749847,311.597534 271.734863,311.386749 
	C271.696625,310.698273 271.658386,310.009796 271.620148,309.321289 
	C275.719330,308.898956 279.809570,308.269806 283.919342,308.091705 
	C298.082397,307.477966 306.632874,300.085114 308.777771,285.542297 
M328.798981,305.431732 
	C328.033722,301.560516 327.268463,297.689331 326.363953,293.113708 
	C338.532623,293.113708 349.924988,293.113708 361.543121,293.113708 
	C361.578613,282.958313 360.395355,273.878479 351.904449,267.684448 
	C339.610535,258.716156 316.916168,263.090424 312.810760,283.193604 
	C309.491852,299.445648 315.759155,313.069641 329.975525,317.299042 
	C340.761414,320.507843 350.839020,318.900787 358.643646,312.438721 
	C356.269409,309.104950 354.112000,306.075592 351.453033,302.342010 
	C350.691833,305.141113 350.414612,306.618317 349.892639,308.003296 
	C347.151886,315.276154 340.421204,318.671204 335.098724,314.817871 
	C332.399750,312.863892 330.984253,309.137054 328.798981,305.431732 
M155.849976,276.295197 
	C155.257751,284.371765 158.475052,289.471741 166.601730,293.561737 
	C170.604309,295.576172 174.602158,297.617950 178.477936,299.861938 
	C183.600906,302.827911 185.594116,307.923676 183.426407,311.898804 
	C181.109482,316.147552 173.917511,317.883728 169.271912,314.840088 
	C167.186096,313.473541 165.626755,311.121490 164.218765,308.962189 
	C163.170471,307.354523 162.749619,305.337708 161.956284,303.259338 
	C159.038208,306.144135 156.407806,308.744507 153.561829,311.558014 
	C159.124268,316.549225 165.741241,318.603607 172.826889,318.661652 
	C177.244476,318.697815 181.799240,317.968445 186.065414,316.772705 
	C192.500320,314.969086 197.567612,311.270905 198.133621,303.856079 
	C198.693344,296.523285 194.087769,292.245636 188.513809,288.769287 
	C183.456497,285.615173 178.295853,282.626312 173.170685,279.581604 
	C169.764801,277.558228 168.625534,274.235596 170.160080,271.036835 
	C171.203354,268.862122 174.099396,266.227966 176.173141,266.222656 
	C179.039062,266.215302 182.521729,267.874390 184.612701,269.953674 
	C186.817291,272.145996 187.695663,275.671936 188.746475,277.793518 
	C191.502457,275.648804 194.435425,273.366394 197.354599,271.094696 
	C191.125320,264.728577 181.275360,262.028534 171.262939,263.906677 
	C164.335190,265.206238 158.137756,267.817932 155.849976,276.295197 
M132.714920,302.478241 
	C132.113327,307.550781 135.365967,313.849060 128.169785,317.022156 
	C135.934677,317.022156 143.699554,317.022156 151.464447,317.022156 
	C146.571045,315.014618 147.377182,311.046967 147.369400,307.476166 
	C147.353119,299.996796 147.364334,292.517395 147.364288,285.037994 
	C147.364243,278.278870 147.364273,271.519714 147.364273,264.044739 
	C140.363022,265.813507 134.073181,267.402557 127.783348,268.991638 
	C127.643028,269.467285 127.502716,269.942963 127.362396,270.418610 
	C132.720932,271.178619 132.833694,274.683563 132.758621,278.549530 
	C132.610199,286.192230 132.714905,293.839874 132.714920,302.478241 
M360.201904,214.696136 
	C357.305695,208.948334 351.227509,206.498962 345.185944,208.895096 
	C343.288574,209.647629 341.561432,210.952377 339.949188,212.244873 
	C339.228546,212.822586 338.983795,213.993912 338.523102,214.895844 
	C338.023376,213.878784 337.392212,212.901993 337.064392,211.832245 
	C336.789276,210.934357 336.867798,209.928070 336.774017,208.777115 
	C332.534943,209.738159 328.573639,210.636246 324.329193,211.598511 
	C328.258514,215.892609 328.444946,239.526901 325.006958,244.610199 
	C330.021912,244.610199 335.044250,244.610199 340.087524,244.610199 
	C339.105774,242.889282 337.537720,241.424637 337.588867,240.018906 
	C337.888611,231.778793 338.520081,223.548615 339.193787,215.327713 
	C339.256989,214.556427 340.252930,213.606201 341.050934,213.191528 
	C346.613190,210.301285 350.323822,212.341476 350.714264,218.850525 
	C351.072845,224.827698 351.002960,230.845779 350.796539,236.834625 
	C350.705505,239.476395 349.809906,242.090424 349.337646,244.429504 
	C353.587158,244.429504 358.672455,244.429504 363.019653,244.429504 
	C362.230530,242.317139 361.125244,240.644760 361.045715,238.924911 
	C360.684875,231.122559 360.613342,223.306824 360.201904,214.696136 
M307.329529,208.027206 
	C297.198822,208.328354 291.617493,212.487549 289.415192,221.376846 
	C287.414276,229.453323 290.467285,239.085007 296.097290,242.457718 
	C304.375366,247.416794 314.578644,246.709366 321.376801,240.388687 
	C319.571655,238.663849 317.793274,236.964584 315.765198,235.026749 
	C313.288635,242.166321 310.495636,244.688400 306.559113,243.894577 
	C301.920593,242.959198 298.807587,236.313522 299.398163,228.082306 
	C307.117371,228.082306 314.876373,228.082306 322.592041,228.082306 
	C323.330261,217.747635 318.702820,209.031982 307.329529,208.027206 
M139.563690,242.305511 
	C133.757996,243.322327 131.128586,245.738113 130.760834,250.532578 
	C130.422562,254.942856 132.033051,258.323334 136.316376,259.992645 
	C141.347122,261.953247 147.081421,259.412720 148.429398,254.739731 
	C150.314102,248.206146 147.405792,243.733551 139.563690,242.305511 
z"/>
<path fill="#FBFBFB" opacity="1.000000" stroke="none" 
	d="
M429.541809,265.915009 
	C430.364105,269.296509 431.080231,272.708252 432.032471,276.052765 
	C433.632568,281.672729 433.848297,287.552612 437.574829,292.733002 
	C441.506042,298.197998 439.107849,302.960510 432.487854,302.762268 
	C426.215973,302.574432 419.924500,300.737152 413.784912,299.091003 
	C407.781036,297.481262 401.833252,295.496460 396.097870,293.107361 
	C392.007538,291.403442 388.020660,289.123199 384.554993,286.382629 
	C382.755798,284.959869 382.302094,281.913422 381.023254,279.727600 
	C380.168457,278.266541 378.236572,277.144470 377.992218,275.670837 
	C377.183655,270.794434 376.516235,265.825043 376.544556,260.895630 
	C376.588440,253.253479 377.249817,245.614914 377.992188,237.518616 
	C379.925903,237.083389 381.516785,237.104385 383.107697,237.125366 
	C386.109802,242.458237 386.388580,249.465164 392.402405,252.926422 
	C396.319611,255.180954 400.477081,257.017975 404.994507,259.546448 
	C406.326447,261.237823 407.561615,262.309906 407.972870,263.637268 
	C408.684753,265.934845 408.885864,268.390656 409.301208,270.780090 
	C409.779938,270.724731 410.258667,270.669403 410.737366,270.614044 
	C410.948914,269.520660 411.160461,268.427277 411.592651,267.094849 
	C411.813324,266.281189 411.813324,265.706573 411.813324,265.131927 
	C411.647003,265.110901 411.480682,265.089874 411.314392,265.068817 
	C411.144073,265.654144 410.973785,266.239441 410.524353,266.547180 
	C410.118286,263.792328 409.991302,261.315063 409.864319,258.837799 
	C410.096863,255.091034 411.778229,252.782013 415.659973,251.790329 
	C418.963318,250.946411 422.071289,249.337601 425.725098,248.559357 
	C425.791809,251.680725 425.399139,254.309967 424.669678,256.965546 
	C423.892914,256.910828 423.452942,256.829742 422.967377,256.474243 
	C422.277466,256.396027 421.633209,256.592224 420.599915,256.873230 
	C418.224182,257.477936 416.237457,257.997833 414.250732,258.517700 
	C414.342041,258.921783 414.433350,259.325836 414.524689,259.729889 
	C418.662994,260.262238 422.801300,260.794556 426.934814,261.636993 
	C427.800629,263.269714 428.671234,264.592377 429.541809,265.915009 
M412.488983,263.721527 
	C412.564026,263.342224 412.639099,262.962891 412.714142,262.583588 
	C412.522400,262.825378 412.330658,263.067139 412.488983,263.721527 
z"/>
<path fill="#F6F6F6" opacity="1.000000" stroke="none" 
	d="
M308.775330,285.962738 
	C306.632874,300.085114 298.082397,307.477966 283.919342,308.091705 
	C279.809570,308.269806 275.719330,308.898956 271.620148,309.321289 
	C271.658386,310.009796 271.696625,310.698273 271.734863,311.386749 
	C273.749847,311.597534 275.760223,311.891968 277.780670,312.003967 
	C284.902496,312.398773 292.074493,312.351135 299.135345,313.219910 
	C303.877838,313.803467 308.106476,316.147919 309.011475,321.653809 
	C310.004944,327.697876 306.986969,332.160919 302.290833,335.120239 
	C287.842621,344.224976 265.157745,339.702728 257.123901,329.204803 
	C258.060944,327.815308 259.055908,326.339996 260.050110,324.865845 
	C255.289673,315.226349 257.503937,311.418152 270.810730,306.505554 
	C270.391754,306.164948 270.057922,305.785828 269.639893,305.569427 
	C259.241821,300.186371 255.720230,293.682495 256.975616,282.137146 
	C257.899933,273.636383 264.414551,266.807495 274.143097,264.303467 
	C276.226715,263.767181 278.397003,263.500793 280.545074,263.293213 
	C291.221405,262.261444 293.341400,260.930145 299.123230,250.735382 
	C301.421753,253.981262 303.531891,256.961090 306.007080,260.456421 
	C302.723694,261.744415 298.729340,263.311310 294.119965,265.119446 
	C303.015533,269.165619 308.229523,275.775696 308.775330,285.962738 
M272.479462,294.704926 
	C273.280701,296.685333 273.807648,298.839294 274.931580,300.615540 
	C279.367523,307.626038 286.226318,307.761658 290.036072,300.510864 
	C295.301971,290.488708 295.353516,280.105408 289.809937,270.035889 
	C287.561462,265.951691 283.329987,264.312164 279.652863,266.569214 
	C276.604004,268.440582 273.558868,272.224609 272.882660,275.631805 
	C271.712128,281.529510 272.377014,287.791473 272.479462,294.704926 
M278.981354,336.806213 
	C283.185181,336.626068 287.512299,336.966675 291.533508,336.014923 
	C293.191986,335.622437 295.377960,332.301300 295.157806,330.590973 
	C294.941132,328.907806 292.057404,326.416840 290.212036,326.296082 
	C282.728302,325.806366 275.193756,326.092621 266.873413,326.092621 
	C269.842682,331.640167 273.202576,334.998749 278.981354,336.806213 
z"/>
<path fill="#F9F9F9" opacity="1.000000" stroke="none" 
	d="
M356.816986,190.461838 
	C373.318726,182.693970 390.571686,178.434891 408.901947,179.880844 
	C411.858246,180.114059 414.698853,181.814301 417.197632,183.309784 
	C416.535950,183.854019 416.269592,183.924881 415.575684,183.990234 
	C407.274200,184.153580 405.165192,185.998138 405.710846,192.546143 
	C406.306641,192.012100 407.124390,191.639648 407.185852,191.168503 
	C407.843170,186.132278 411.243011,185.574936 415.343719,185.917343 
	C415.854218,185.959991 416.420868,185.330017 416.991119,184.993225 
	C417.020721,184.974762 417.077057,184.933548 417.366730,184.956299 
	C418.043701,184.987289 418.431030,184.995514 418.818329,185.003738 
	C419.154358,185.491501 419.490417,185.979248 419.858398,187.074249 
	C419.145813,187.980881 418.425262,188.392212 417.652100,188.557480 
	C415.762054,188.961472 412.971985,188.614975 412.153503,189.740707 
	C410.997833,191.330109 411.292999,193.974411 410.975555,196.477982 
	C410.985382,197.201981 410.987579,197.615738 410.634430,198.086075 
	C409.665710,198.852036 409.052368,199.561417 408.439026,200.270798 
	C397.429199,199.561829 386.419342,198.852844 374.882446,198.524734 
	C373.016510,198.740219 371.677704,198.574829 370.338867,198.409454 
	C370.337067,199.155640 370.335297,199.901825 370.333527,200.648010 
	C372.236359,200.394669 374.139191,200.141327 376.042023,199.887985 
	C382.269501,199.887985 388.496979,199.887985 394.724457,199.887985 
	C395.145325,200.261246 395.566193,200.634506 395.987061,201.007767 
	C389.280945,205.283569 391.279236,209.980591 394.182495,214.561844 
	C396.005096,217.437866 395.395142,219.506134 392.743530,221.300858 
	C391.270721,222.297714 389.831970,223.344818 388.556549,225.193787 
	C392.740845,224.312027 396.925110,223.430267 401.527344,223.034561 
	C401.952179,225.316589 401.959045,227.112564 401.965942,228.908524 
	C396.281555,229.584793 390.597168,230.261047 384.030029,230.937637 
	C379.313782,230.926361 375.480255,230.914764 371.646759,230.903168 
	C371.532104,230.492065 371.417419,230.080978 371.750061,229.418411 
	C372.599792,228.966309 373.002167,228.765671 373.404541,228.565033 
	C372.777435,228.348816 372.150299,228.132614 371.523193,227.916412 
	C370.324005,222.521683 369.624634,216.948410 367.779907,211.784302 
	C366.060852,206.972137 362.713348,203.034485 357.113770,200.951782 
	C356.931244,196.917267 356.874115,193.689560 356.816986,190.461838 
M372.000000,216.000000 
	C372.000000,216.000000 372.001221,216.000900 372.009735,216.699951 
	C372.218842,217.302612 372.360931,218.393082 372.647491,218.432449 
	C375.516449,218.826721 381.761353,212.191910 381.689728,208.929688 
	C380.149048,210.276596 378.613464,211.619064 376.871857,213.141647 
	C376.429810,212.127365 376.217407,211.695862 376.052460,211.246918 
	C375.863464,210.732437 375.716522,210.202499 375.551300,209.679276 
	C375.177002,209.629730 374.802734,209.580200 374.428436,209.530655 
	C373.618561,211.686691 372.808655,213.842743 372.000000,216.000000 
M389.787842,195.030182 
	C390.764954,191.843704 391.742065,188.657227 392.897919,184.887817 
	C388.681946,185.919998 387.792908,188.813110 387.948853,191.528061 
	C388.007294,192.546371 384.836060,195.817093 389.787842,195.030182 
M367.774841,190.603683 
	C368.449127,190.125824 369.123413,189.647949 369.797699,189.170074 
	C369.479767,188.844528 369.161835,188.518982 368.843872,188.193420 
	C368.351868,188.857071 367.859833,189.520737 367.774841,190.603683 
M366.970703,194.401535 
	C366.893738,195.092072 366.816742,195.782608 366.739746,196.473145 
	C367.077423,196.490875 367.415070,196.508591 367.752747,196.526306 
	C367.752747,195.396881 367.752747,194.267471 367.752747,193.138031 
	C367.539978,193.208084 367.298828,193.238785 367.125732,193.363800 
	C367.030029,193.432892 367.048401,193.659958 366.970703,194.401535 
M405.255798,196.071121 
	C405.752319,196.068024 406.248810,196.064926 406.745331,196.061829 
	C406.599396,195.512619 406.453430,194.963394 406.307495,194.414200 
	C405.913025,194.763580 405.518555,195.112961 405.255798,196.071121 
M378.442261,189.709000 
	C378.710205,189.990021 378.978149,190.271042 379.246063,190.552063 
	C379.362427,190.440933 379.586029,190.239334 379.579651,190.231750 
	C379.329620,189.935410 379.058655,189.656723 378.442261,189.709000 
M380.038879,186.815033 
	C380.435150,186.722000 380.831451,186.628952 381.227692,186.535919 
	C381.141541,186.417358 381.040192,186.188889 380.971771,186.198334 
	C380.569519,186.253998 380.174927,186.365097 380.038879,186.815033 
M364.045746,201.163605 
	C364.194641,201.414673 364.293884,201.791229 364.508545,201.876205 
	C364.673370,201.941483 364.983673,201.639313 365.229279,201.500549 
	C364.983551,201.361450 364.737823,201.222351 364.045746,201.163605 
M361.406128,200.482483 
	C361.406128,200.482483 361.522156,200.412262 361.406128,200.482483 
z"/>
<path fill="#F5F5F5" opacity="1.000000" stroke="none" 
	d="
M227.058517,315.001160 
	C222.859955,316.224487 218.646774,318.496124 214.466064,318.437836 
	C207.292038,318.337769 201.772644,312.761688 201.004471,306.582855 
	C200.116959,299.443878 204.827927,291.461792 212.595352,288.605774 
	C219.522934,286.058533 226.807663,284.482635 234.263550,282.385590 
	C234.953537,274.890900 231.343826,266.726471 226.050446,266.058899 
	C220.412766,265.347900 216.550262,266.422150 212.527145,278.965576 
	C209.836334,276.189270 207.286926,273.558868 203.805893,269.967224 
	C207.807922,268.063446 211.279404,265.966736 215.032410,264.712402 
	C225.249771,261.297638 239.889709,263.445099 244.986679,273.008423 
	C247.694641,278.089264 248.950317,284.186127 249.742706,289.977448 
	C250.525436,295.698273 249.919724,301.612152 249.882248,307.441071 
	C249.859131,311.037720 249.157455,314.912140 254.035141,316.982147 
	C247.876877,316.982147 241.718613,316.982147 235.049652,316.982147 
	C235.049652,313.892700 235.049652,310.500061 235.049652,306.031799 
	C233.704819,307.814026 233.067978,308.657959 231.883362,309.823853 
	C230.894821,310.095612 230.454056,310.045441 230.079834,309.640320 
	C234.704010,302.482758 235.632187,294.919617 234.857819,286.716858 
	C234.600723,286.325226 234.303558,286.208069 233.605759,285.991699 
	C231.895325,286.062073 230.558594,286.117645 229.279968,286.419373 
	C219.126709,288.815491 214.421494,295.857849 216.020111,306.186554 
	C216.888443,311.797058 220.289886,314.348938 226.259583,313.819214 
	C226.701447,314.311951 226.879990,314.656555 227.058517,315.001160 
z"/>
<path fill="#F5F5F5" opacity="1.000000" stroke="none" 
	d="
M328.893738,305.821716 
	C330.984253,309.137054 332.399750,312.863892 335.098724,314.817871 
	C340.421204,318.671204 347.151886,315.276154 349.892639,308.003296 
	C350.414612,306.618317 350.691833,305.141113 351.453033,302.342010 
	C354.112000,306.075592 356.269409,309.104950 358.643646,312.438721 
	C350.839020,318.900787 340.761414,320.507843 329.975525,317.299042 
	C315.759155,313.069641 309.491852,299.445648 312.810760,283.193604 
	C316.916168,263.090424 339.610535,258.716156 351.904449,267.684448 
	C360.395355,273.878479 361.578613,282.958313 361.543121,293.113708 
	C349.924988,293.113708 338.532623,293.113708 326.363953,293.113708 
	C327.268463,297.689331 328.033722,301.560516 328.893738,305.821716 
M346.017181,290.896942 
	C345.396912,284.460602 345.306335,277.903503 343.880493,271.650879 
	C343.353241,269.338776 339.684692,266.232025 337.449890,266.232910 
	C335.077332,266.233856 331.432739,269.039124 330.583344,271.419098 
	C328.414215,277.496735 327.491486,284.019196 325.918762,291.039459 
	C333.229187,291.039459 339.165344,291.039459 346.017181,290.896942 
z"/>
<path fill="#F5F5F5" opacity="1.000000" stroke="none" 
	d="
M155.911530,275.919067 
	C158.137756,267.817932 164.335190,265.206238 171.262939,263.906677 
	C181.275360,262.028534 191.125320,264.728577 197.354599,271.094696 
	C194.435425,273.366394 191.502457,275.648804 188.746475,277.793518 
	C187.695663,275.671936 186.817291,272.145996 184.612701,269.953674 
	C182.521729,267.874390 179.039062,266.215302 176.173141,266.222656 
	C174.099396,266.227966 171.203354,268.862122 170.160080,271.036835 
	C168.625534,274.235596 169.764801,277.558228 173.170685,279.581604 
	C178.295853,282.626312 183.456497,285.615173 188.513809,288.769287 
	C194.087769,292.245636 198.693344,296.523285 198.133621,303.856079 
	C197.567612,311.270905 192.500320,314.969086 186.065414,316.772705 
	C181.799240,317.968445 177.244476,318.697815 172.826889,318.661652 
	C165.741241,318.603607 159.124268,316.549225 153.561829,311.558014 
	C156.407806,308.744507 159.038208,306.144135 161.956284,303.259338 
	C162.749619,305.337708 163.170471,307.354523 164.218765,308.962189 
	C165.626755,311.121490 167.186096,313.473541 169.271912,314.840088 
	C173.917511,317.883728 181.109482,316.147552 183.426407,311.898804 
	C185.594116,307.923676 183.600906,302.827911 178.477936,299.861938 
	C174.602158,297.617950 170.604309,295.576172 166.601730,293.561737 
	C158.475052,289.471741 155.257751,284.371765 155.911530,275.919067 
z"/>
<path fill="#F7F7F7" opacity="1.000000" stroke="none" 
	d="
M102.127144,298.237579 
	C99.504211,304.857300 96.881287,311.476990 94.258354,318.096680 
	C93.687431,318.030762 93.116516,317.964844 92.545593,317.898895 
	C89.714462,310.917419 86.858635,303.945831 84.057236,296.952454 
	C77.822830,281.389008 71.737045,265.763855 65.271164,250.297440 
	C64.259789,247.878220 61.570004,246.160660 59.305340,243.744141 
	C67.832733,243.744141 76.219719,243.744141 86.356041,243.744141 
	C78.057648,246.874878 81.680763,251.196304 83.238693,255.080597 
	C88.858162,269.091248 94.590958,283.056458 100.894516,297.173401 
	C101.714424,297.617859 101.920784,297.927704 102.127144,298.237579 
z"/>
<path fill="#F9F9F9" opacity="1.000000" stroke="none" 
	d="
M132.714935,301.981873 
	C132.714905,293.839874 132.610199,286.192230 132.758621,278.549530 
	C132.833694,274.683563 132.720932,271.178619 127.362396,270.418610 
	C127.502716,269.942963 127.643028,269.467285 127.783348,268.991638 
	C134.073181,267.402557 140.363022,265.813507 147.364273,264.044739 
	C147.364273,271.519714 147.364243,278.278870 147.364288,285.037994 
	C147.364334,292.517395 147.353119,299.996796 147.369400,307.476166 
	C147.377182,311.046967 146.571045,315.014618 151.464447,317.022156 
	C143.699554,317.022156 135.934677,317.022156 128.169785,317.022156 
	C135.365967,313.849060 132.113327,307.550781 132.714935,301.981873 
z"/>
<path fill="#F3F3F3" opacity="1.000000" stroke="none" 
	d="
M360.319824,215.096008 
	C360.613342,223.306824 360.684875,231.122559 361.045715,238.924911 
	C361.125244,240.644760 362.230530,242.317139 363.019653,244.429504 
	C358.672455,244.429504 353.587158,244.429504 349.337646,244.429504 
	C349.809906,242.090424 350.705505,239.476395 350.796539,236.834625 
	C351.002960,230.845779 351.072845,224.827698 350.714264,218.850525 
	C350.323822,212.341476 346.613190,210.301285 341.050934,213.191528 
	C340.252930,213.606201 339.256989,214.556427 339.193787,215.327713 
	C338.520081,223.548615 337.888611,231.778793 337.588867,240.018906 
	C337.537720,241.424637 339.105774,242.889282 340.087524,244.610199 
	C335.044250,244.610199 330.021912,244.610199 325.006958,244.610199 
	C328.444946,239.526901 328.258514,215.892609 324.329193,211.598511 
	C328.573639,210.636246 332.534943,209.738159 336.774017,208.777115 
	C336.867798,209.928070 336.789276,210.934357 337.064392,211.832245 
	C337.392212,212.901993 338.023376,213.878784 338.523102,214.895844 
	C338.983795,213.993912 339.228546,212.822586 339.949188,212.244873 
	C341.561432,210.952377 343.288574,209.647629 345.185944,208.895096 
	C351.227509,206.498962 357.305695,208.948334 360.319824,215.096008 
z"/>
<path fill="#F1F1F1" opacity="1.000000" stroke="none" 
	d="
M307.759216,208.043365 
	C318.702820,209.031982 323.330261,217.747635 322.592041,228.082306 
	C314.876373,228.082306 307.117371,228.082306 299.398163,228.082306 
	C298.807587,236.313522 301.920593,242.959198 306.559113,243.894577 
	C310.495636,244.688400 313.288635,242.166321 315.765198,235.026749 
	C317.793274,236.964584 319.571655,238.663849 321.376801,240.388687 
	C314.578644,246.709366 304.375366,247.416794 296.097290,242.457718 
	C290.467285,239.085007 287.414276,229.453323 289.415192,221.376846 
	C291.617493,212.487549 297.198822,208.328354 307.759216,208.043365 
M311.070312,214.621231 
	C309.464203,213.034073 307.798187,210.133163 306.267731,210.202972 
	C304.483490,210.284348 302.031769,212.651871 301.268860,214.580780 
	C299.811462,218.265396 299.345306,222.342087 298.414124,226.495117 
	C303.879150,226.495117 308.257172,226.495117 313.262543,226.495117 
	C312.566772,222.505600 311.946808,218.950851 311.070312,214.621231 
z"/>
<path fill="#F3F3F3" opacity="1.000000" stroke="none" 
	d="
M270.037750,209.101608 
	C281.687744,208.661835 287.331726,214.957718 286.586975,228.050903 
	C278.883331,228.050903 271.140289,228.050903 263.449280,228.050903 
	C262.688232,236.025070 265.804291,243.168518 270.422272,243.827072 
	C276.471924,244.689789 278.199493,240.186493 279.959991,233.604797 
	C282.324310,236.446823 283.871307,238.306412 285.381836,240.122147 
	C279.888458,246.804108 267.142059,247.689606 258.955444,241.741898 
	C252.491684,237.045853 250.828293,224.064178 255.310471,216.503845 
	C257.985596,211.991531 261.346832,208.616455 267.557312,209.366425 
	C264.226044,214.670990 262.533417,220.179031 263.144135,226.544220 
	C267.717407,226.544220 272.111725,226.544220 277.031921,226.544220 
	C275.823944,219.975006 277.341492,212.874893 270.037750,209.101608 
z"/>
<path fill="#F2F2F2" opacity="1.000000" stroke="none" 
	d="
M182.773041,194.332504 
	C202.612778,190.565048 212.320877,208.395859 209.493881,225.594086 
	C207.585495,237.203766 200.671753,244.103165 188.388580,245.930939 
	C188.209030,245.261215 188.607330,244.692093 189.324539,243.973770 
	C191.796310,241.722672 194.725555,239.999725 195.968323,237.453598 
	C201.496979,226.126617 201.269547,214.411728 196.676254,202.835968 
	C193.885300,195.802292 190.455536,194.304123 182.948608,195.588196 
	C182.855621,194.889984 182.814331,194.611237 182.773041,194.332504 
z"/>
<path fill="#F6F6F6" opacity="1.000000" stroke="none" 
	d="
M404.007874,222.272339 
	C409.360077,221.492020 414.455627,221.663925 419.496277,224.320267 
	C421.563416,225.409622 424.636871,225.384720 427.047577,224.882599 
	C435.418549,223.139008 437.757111,224.912430 436.033478,233.063431 
	C435.427429,235.929413 433.669922,240.245255 431.637878,240.764008 
	C427.399933,241.845856 425.848083,237.373779 424.265350,234.100815 
	C423.705475,232.943039 423.455078,231.635620 422.684845,229.198975 
	C419.649017,234.897232 418.707031,242.215302 410.284668,239.415802 
	C406.013733,237.996170 404.297638,235.009949 403.949554,230.045715 
	C404.003754,226.904617 404.005798,224.588486 404.007874,222.272339 
M406.453491,225.812759 
	C406.405487,225.386642 406.357483,224.960510 406.309509,224.534378 
	C405.942871,224.709808 405.576263,224.885239 405.209625,225.060669 
	C405.494415,225.438797 405.779205,225.816910 406.453491,225.812759 
z"/>
<path fill="#F6F6F6" opacity="1.000000" stroke="none" 
	d="
M182.381317,194.335236 
	C182.814331,194.611237 182.855621,194.889984 182.748871,195.861786 
	C181.280914,198.216415 179.646301,199.716095 178.694397,201.566910 
	C174.002243,210.689911 174.022949,220.403641 175.985336,230.124390 
	C177.126358,235.776367 178.882660,241.397552 185.008972,244.286102 
	C185.003403,245.014343 184.997635,245.430450 184.991867,245.846573 
	C163.590729,242.793976 159.955688,215.989166 170.204025,201.953217 
	C172.779022,198.426529 177.990005,196.824493 182.381317,194.335236 
z"/>
<path fill="#F2F2F2" opacity="1.000000" stroke="none" 
	d="
M238.023254,238.930954 
	C234.033493,243.713730 229.397720,247.001358 222.740677,245.218781 
	C217.966339,243.940338 214.787491,241.184158 214.737228,235.839569 
	C214.682571,230.027786 214.836136,224.206604 214.534531,218.408463 
	C214.423599,216.276215 213.271774,214.198135 212.376709,211.418182 
	C215.690002,210.646622 219.879486,209.671021 224.777802,208.530350 
	C224.777802,214.882034 224.768311,220.634735 224.781876,226.387390 
	C224.788528,229.210388 224.265640,232.201111 225.030289,234.808624 
	C225.782272,237.372910 227.860428,239.548309 229.356644,241.894348 
	C231.658844,240.371567 233.961060,238.848785 236.813248,237.276947 
	C237.583237,237.795578 237.803253,238.363266 238.023254,238.930954 
z"/>
<path fill="#F9F9F9" opacity="1.000000" stroke="none" 
	d="
M238.004105,239.379089 
	C237.803253,238.363266 237.583237,237.795578 237.088318,237.074692 
	C237.905579,228.604858 239.702805,220.250778 235.854797,211.484024 
	C239.417130,210.659286 243.483215,209.717896 248.530823,208.549286 
	C248.530823,220.184906 248.530823,231.235184 248.763046,242.927368 
	C248.993652,243.957672 248.992050,244.346039 248.990433,244.734421 
	C245.464188,244.734421 241.937943,244.734421 237.984940,244.734421 
	C237.984940,242.970444 237.984940,241.398834 238.004105,239.379089 
z"/>
<path fill="#F5F5F5" opacity="1.000000" stroke="none" 
	d="
M139.954803,242.306976 
	C147.405792,243.733551 150.314102,248.206146 148.429398,254.739731 
	C147.081421,259.412720 141.347122,261.953247 136.316376,259.992645 
	C132.033051,258.323334 130.422562,254.942856 130.760834,250.532578 
	C131.128586,245.738113 133.757996,243.322327 139.954803,242.306976 
z"/>
<path fill="#0B0B0B" opacity="1.000000" stroke="none" 
	d="
M270.015167,208.842072 
	C277.341492,212.874893 275.823944,219.975006 277.031921,226.544220 
	C272.111725,226.544220 267.717407,226.544220 263.144135,226.544220 
	C262.533417,220.179031 264.226044,214.670990 267.966827,209.389648 
	C268.618652,208.880722 269.305634,208.731644 270.015167,208.842072 
z"/>
<path fill="#DCDCDC" opacity="1.000000" stroke="none" 
	d="
M102.402168,298.011230 
	C101.920784,297.927704 101.714424,297.617859 101.270103,297.161743 
	C105.713211,285.499817 110.388695,273.981812 115.077957,262.469452 
	C117.130028,257.431519 119.210258,252.405090 121.352425,247.191589 
	C119.600685,246.198700 118.205681,245.408005 116.810669,244.617310 
	C116.906090,244.284607 117.001511,243.951920 117.096924,243.619232 
	C120.796196,243.619232 124.495468,243.619232 127.826340,243.619232 
	C117.416885,255.819046 114.862938,271.687622 107.957733,285.428223 
	C105.950272,289.422852 104.424026,293.659271 102.402168,298.011230 
z"/>
<path fill="#EBEBEB" opacity="1.000000" stroke="none" 
	d="
M185.330383,246.004089 
	C184.997635,245.430450 185.003403,245.014343 185.409271,244.263275 
	C186.874786,243.993195 187.940201,244.058075 189.005630,244.122955 
	C188.607330,244.692093 188.209030,245.261215 187.996887,245.957184 
	C191.598007,252.999008 195.500076,253.928909 204.235886,249.783905 
	C205.493622,251.191055 206.788589,252.639893 208.060150,254.062500 
	C204.009613,259.964691 194.404205,260.471985 190.200912,254.850021 
	C188.270325,252.267822 187.154312,249.076630 185.330383,246.004089 
z"/>
<path fill="#F5F5F5" opacity="1.000000" stroke="none" 
	d="
M410.989807,198.029495 
	C410.987579,197.615738 410.985382,197.201981 411.243469,196.246582 
	C413.664429,189.556580 413.930725,187.655914 420.798401,192.473114 
	C421.583496,193.023819 422.409393,193.516388 423.216370,194.035919 
	C424.059845,201.612625 420.633392,204.617859 413.963257,202.211182 
	C412.426727,201.656784 410.803955,201.341568 409.319733,200.513031 
	C409.942352,199.416367 410.466095,198.722931 410.989807,198.029495 
z"/>
<path fill="#C7C7C7" opacity="1.000000" stroke="none" 
	d="
M170.009216,190.075745 
	C171.208252,190.821335 172.407303,191.566940 173.919540,192.507278 
	C177.547318,187.107834 180.939804,182.058578 184.897736,176.167725 
	C187.495590,180.201385 189.835709,183.834839 192.175812,187.468292 
	C191.787369,187.748703 191.398926,188.029114 191.010483,188.309525 
	C189.013626,185.589157 187.016769,182.868790 184.811569,179.864594 
	C181.451492,184.843185 178.345612,189.445160 175.625137,193.476074 
	C173.640808,193.022720 172.205933,192.805817 170.880127,192.301926 
	C170.602448,192.196381 170.726669,191.033432 170.342804,190.191833 
	C170.019943,190.025894 170.009216,190.075745 170.009216,190.075745 
z"/>
<path fill="#F5F5F5" opacity="1.000000" stroke="none" 
	d="
M356.461792,190.541916 
	C356.874115,193.689560 356.931244,196.917267 356.976868,200.619476 
	C353.051453,201.093964 349.137543,201.093964 345.223663,201.093964 
	C344.955933,200.595703 344.688171,200.097443 344.420410,199.599182 
	C348.315826,196.606796 352.211212,193.614395 356.461792,190.541916 
z"/>
<path fill="#C7C7C7" opacity="1.000000" stroke="none" 
	d="
M429.867157,265.648132 
	C428.671234,264.592377 427.800629,263.269714 427.135376,261.399963 
	C426.562622,259.548309 425.784546,258.243774 425.006470,256.939209 
	C425.399139,254.309967 425.791809,251.680725 426.074219,248.729431 
	C430.309387,247.962723 430.877258,251.216797 430.966187,254.140244 
	C431.079834,257.875946 430.483093,261.633240 429.867157,265.648132 
z"/>
<path fill="#D3D3D3" opacity="1.000000" stroke="none" 
	d="
M371.624268,231.212128 
	C375.480255,230.914764 379.313782,230.926361 383.606354,230.984894 
	C383.727844,232.766937 383.390228,234.502060 383.080139,236.681274 
	C381.516785,237.104385 379.925903,237.083389 377.932373,237.071564 
	C375.553741,235.227509 373.577728,233.374313 371.624268,231.212128 
z"/>
<path fill="#EBEBEB" opacity="1.000000" stroke="none" 
	d="
M423.365173,193.691162 
	C422.409393,193.516388 421.583496,193.023819 420.798401,192.473114 
	C413.930725,187.655914 413.664429,189.556580 411.235840,195.936340 
	C411.292999,193.974411 410.997833,191.330109 412.153503,189.740707 
	C412.971985,188.614975 415.762054,188.961472 417.652100,188.557480 
	C418.425262,188.392212 419.145813,187.980881 419.936188,187.365067 
	C421.159363,189.147888 422.336639,191.247131 423.365173,193.691162 
z"/>
<path fill="#C7C7C7" opacity="1.000000" stroke="none" 
	d="
M170.042999,190.018219 
	C167.977585,185.272293 165.889099,180.534058 163.800613,175.795822 
	C164.423798,175.571320 165.046982,175.346832 165.670181,175.122330 
	C167.642746,179.683807 170.092224,184.100082 169.632629,189.796204 
	C170.009216,190.075745 170.019943,190.025894 170.042999,190.018219 
z"/>
<path fill="#A4A4A4" opacity="1.000000" stroke="none" 
	d="
M409.539246,258.888794 
	C409.991302,261.315063 410.118286,263.792328 410.666443,266.674561 
	C411.087646,267.079498 411.372009,267.333893 411.372009,267.333893 
	C411.160461,268.427277 410.948914,269.520660 410.737366,270.614044 
	C410.258667,270.669403 409.779938,270.724731 409.301208,270.780090 
	C408.885864,268.390656 408.684753,265.934845 407.972870,263.637268 
	C407.561615,262.309906 406.326447,261.237823 405.259888,259.729248 
	C406.443176,259.251678 407.828674,259.095703 409.539246,258.888794 
z"/>
<path fill="#050505" opacity="1.000000" stroke="none" 
	d="
M230.013290,309.995270 
	C230.454056,310.045441 230.894821,310.095612 231.669769,310.143250 
	C230.574265,311.726776 229.144608,313.312866 227.386734,314.950043 
	C226.879990,314.656555 226.701447,314.311951 226.305756,313.504608 
	C227.396835,312.026306 228.705063,311.010803 230.013290,309.995270 
z"/>
<path fill="#F1F1F1" opacity="1.000000" stroke="none" 
	d="
M403.734070,222.219055 
	C404.005798,224.588486 404.003754,226.904617 403.982971,229.658539 
	C403.549103,229.777420 403.133942,229.458557 402.342346,229.024109 
	C401.959045,227.112564 401.952179,225.316589 401.938416,223.125671 
	C402.441101,222.542389 402.950684,222.354080 403.734070,222.219055 
z"/>
<path fill="#F5F5F5" opacity="1.000000" stroke="none" 
	d="
M375.984924,199.652176 
	C374.139191,200.141327 372.236359,200.394669 370.333527,200.648010 
	C370.335297,199.901825 370.337067,199.155640 370.338867,198.409454 
	C371.677704,198.574829 373.016510,198.740219 374.733887,198.933975 
	C375.470459,198.958832 375.742279,199.110168 375.984924,199.652176 
z"/>
<path fill="#F2F2F2" opacity="1.000000" stroke="none" 
	d="
M249.338623,244.822601 
	C248.992050,244.346039 248.993652,243.957672 249.000000,243.278015 
	C249.644089,243.303848 250.283447,243.620956 250.922821,243.938065 
	C250.510818,244.262299 250.098816,244.586533 249.338623,244.822601 
z"/>
<path fill="#EBEBEB" opacity="1.000000" stroke="none" 
	d="
M410.634430,198.086075 
	C410.466095,198.722931 409.942352,199.416367 408.979187,200.256989 
	C408.539764,200.404190 408.510559,200.318161 408.474792,200.294479 
	C409.052368,199.561417 409.665710,198.852036 410.634430,198.086075 
z"/>
<path fill="#D3D3D3" opacity="1.000000" stroke="none" 
	d="
M371.519409,228.218094 
	C372.150299,228.132614 372.777435,228.348816 373.404541,228.565033 
	C373.002167,228.765671 372.599792,228.966309 371.924622,229.137268 
	C371.606445,228.911667 371.561035,228.715714 371.519409,228.218094 
z"/>
<path fill="#F5F5F5" opacity="1.000000" stroke="none" 
	d="
M418.873413,184.705536 
	C418.431030,184.995514 418.043701,184.987289 417.446869,184.640350 
	C417.369110,184.128372 417.500885,183.955093 417.632660,183.781799 
	C418.064606,183.990311 418.496552,184.198837 418.873413,184.705536 
z"/>
<path fill="#F9F9F9" opacity="1.000000" stroke="none" 
	d="
M417.604279,183.790359 
	C417.500885,183.955093 417.369110,184.128372 417.157196,184.617615 
	C417.077057,184.933548 417.020721,184.974762 416.785675,184.871429 
	C416.294037,184.563187 416.111572,184.305740 416.003265,183.995728 
	C416.269592,183.924881 416.535950,183.854019 417.215820,183.770737 
	C417.629333,183.758301 417.575897,183.798920 417.604279,183.790359 
z"/>
<path fill="#2A2A2A" opacity="1.000000" stroke="none" 
	d="
M424.669647,256.965546 
	C425.784546,258.243774 426.562622,259.548309 427.140137,261.089905 
	C422.801300,260.794556 418.662994,260.262238 414.524689,259.729889 
	C414.433350,259.325836 414.342041,258.921783 414.250732,258.517700 
	C416.237457,257.997833 418.224182,257.477936 420.936005,256.925476 
	C422.111725,256.844818 422.562378,256.796722 423.013000,256.748657 
	C423.452942,256.829742 423.892914,256.910828 424.669647,256.965546 
z"/>
<path fill="#F1F1F1" opacity="1.000000" stroke="none" 
	d="
M422.967377,256.474243 
	C422.562378,256.796722 422.111725,256.844818 421.325012,256.840637 
	C421.633209,256.592224 422.277466,256.396027 422.967377,256.474243 
z"/>
<path fill="#A4A4A4" opacity="1.000000" stroke="none" 
	d="
M410.945557,266.952148 
	C410.973785,266.239441 411.144073,265.654144 411.314392,265.068817 
	C411.480682,265.089874 411.647003,265.110901 411.813324,265.131927 
	C411.813324,265.706573 411.813324,266.281189 411.592651,267.094849 
	C411.372009,267.333893 411.087646,267.079498 410.945557,266.952148 
z"/>
<path fill="#A4A4A4" opacity="1.000000" stroke="none" 
	d="
M412.313934,263.515198 
	C412.330658,263.067139 412.522400,262.825378 412.714142,262.583588 
	C412.639099,262.962891 412.564026,263.342224 412.313934,263.515198 
z"/>
<path fill="#050505" opacity="1.000000" stroke="none" 
	d="
M272.375732,294.302795 
	C272.377014,287.791473 271.712128,281.529510 272.882660,275.631805 
	C273.558868,272.224609 276.604004,268.440582 279.652863,266.569214 
	C283.329987,264.312164 287.561462,265.951691 289.809937,270.035889 
	C295.353516,280.105408 295.301971,290.488708 290.036072,300.510864 
	C286.226318,307.761658 279.367523,307.626038 274.931580,300.615540 
	C273.807648,298.839294 273.280701,296.685333 272.375732,294.302795 
z"/>
<path fill="#0B0B0B" opacity="1.000000" stroke="none" 
	d="
M278.619446,336.645081 
	C273.202576,334.998749 269.842682,331.640167 266.873413,326.092621 
	C275.193756,326.092621 282.728302,325.806366 290.212036,326.296082 
	C292.057404,326.416840 294.941132,328.907806 295.157806,330.590973 
	C295.377960,332.301300 293.191986,335.622437 291.533508,336.014923 
	C287.512299,336.966675 283.185181,336.626068 278.619446,336.645081 
z"/>
<path fill="#F5F5F5" opacity="1.000000" stroke="none" 
	d="
M371.998779,215.998779 
	C372.808655,213.842743 373.618561,211.686691 374.428436,209.530655 
	C374.802734,209.580200 375.177002,209.629730 375.551300,209.679276 
	C375.716522,210.202499 375.863464,210.732437 376.052460,211.246918 
	C376.217407,211.695862 376.429810,212.127365 376.871857,213.141647 
	C378.613464,211.619064 380.149048,210.276596 381.689728,208.929688 
	C381.761353,212.191910 375.516449,218.826721 372.647491,218.432449 
	C372.360931,218.393082 372.218842,217.302612 372.139893,216.297287 
	C372.179596,215.929337 372.089203,215.964050 371.998779,215.998779 
z"/>
<path fill="#F5F5F5" opacity="1.000000" stroke="none" 
	d="
M389.555847,195.303711 
	C384.836060,195.817093 388.007294,192.546371 387.948853,191.528061 
	C387.792908,188.813110 388.681946,185.919998 392.897919,184.887817 
	C391.742065,188.657227 390.764954,191.843704 389.555847,195.303711 
z"/>
<path fill="#EBEBEB" opacity="1.000000" stroke="none" 
	d="
M415.575684,183.990234 
	C416.111572,184.305740 416.294037,184.563187 416.756073,184.889893 
	C416.420868,185.330017 415.854218,185.959991 415.343719,185.917343 
	C411.243011,185.574936 407.843170,186.132278 407.185852,191.168503 
	C407.124390,191.639648 406.306641,192.012100 405.710846,192.546143 
	C405.165192,185.998138 407.274200,184.153580 415.575684,183.990234 
z"/>
<path fill="#F5F5F5" opacity="1.000000" stroke="none" 
	d="
M367.571350,190.394043 
	C367.859833,189.520737 368.351868,188.857071 368.843872,188.193420 
	C369.161835,188.518982 369.479767,188.844528 369.797699,189.170074 
	C369.123413,189.647949 368.449127,190.125824 367.571350,190.394043 
z"/>
<path fill="#F5F5F5" opacity="1.000000" stroke="none" 
	d="
M366.993042,194.108673 
	C367.048401,193.659958 367.030029,193.432892 367.125732,193.363800 
	C367.298828,193.238785 367.539978,193.208084 367.752747,193.138031 
	C367.752747,194.267471 367.752747,195.396881 367.752747,196.526306 
	C367.415070,196.508591 367.077423,196.490875 366.739746,196.473145 
	C366.816742,195.782608 366.893738,195.092072 366.993042,194.108673 
z"/>
<path fill="#EBEBEB" opacity="1.000000" stroke="none" 
	d="
M405.189941,195.766724 
	C405.518555,195.112961 405.913025,194.763580 406.307495,194.414185 
	C406.453430,194.963394 406.599396,195.512619 406.745331,196.061829 
	C406.248810,196.064926 405.752319,196.068024 405.189941,195.766724 
z"/>
<path fill="#F5F5F5" opacity="1.000000" stroke="none" 
	d="
M378.616333,189.542374 
	C379.058655,189.656723 379.329620,189.935410 379.579651,190.231750 
	C379.586029,190.239334 379.362427,190.440933 379.246063,190.552063 
	C378.978149,190.271042 378.710205,189.990021 378.616333,189.542374 
z"/>
<path fill="#F5F5F5" opacity="1.000000" stroke="none" 
	d="
M379.908325,186.636292 
	C380.174927,186.365097 380.569519,186.253998 380.971771,186.198334 
	C381.040192,186.188889 381.141541,186.417358 381.227722,186.535919 
	C380.831451,186.628952 380.435150,186.722000 379.908325,186.636292 
z"/>
<path fill="#F5F5F5" opacity="1.000000" stroke="none" 
	d="
M364.268921,201.123428 
	C364.737823,201.222351 364.983551,201.361450 365.229279,201.500549 
	C364.983673,201.639313 364.673370,201.941483 364.508545,201.876205 
	C364.293884,201.791229 364.194641,201.414673 364.268921,201.123428 
z"/>
<path fill="#F5F5F5" opacity="1.000000" stroke="none" 
	d="
M361.464142,200.447372 
	C361.522156,200.412262 361.406128,200.482483 361.464142,200.447372 
z"/>
<path fill="#010101" opacity="1.000000" stroke="none" 
	d="
M230.079834,309.640320 
	C228.705063,311.010803 227.396835,312.026306 226.042450,313.356445 
	C220.289886,314.348938 216.888443,311.797058 216.020111,306.186554 
	C214.421494,295.857849 219.126709,288.815491 229.279968,286.419373 
	C230.558594,286.117645 231.895325,286.062073 233.691910,286.181641 
	C234.338089,286.710144 234.551117,286.883667 234.817749,286.991364 
	C235.632187,294.919617 234.704010,302.482758 230.079834,309.640320 
z"/>
<path fill="#050505" opacity="1.000000" stroke="none" 
	d="
M234.857819,286.716858 
	C234.551117,286.883667 234.338089,286.710144 234.092545,286.280884 
	C234.303558,286.208069 234.600723,286.325226 234.857819,286.716858 
z"/>
<path fill="#050505" opacity="1.000000" stroke="none" 
	d="
M345.559326,290.968201 
	C339.165344,291.039459 333.229187,291.039459 325.918762,291.039459 
	C327.491486,284.019196 328.414215,277.496735 330.583344,271.419098 
	C331.432739,269.039124 335.077332,266.233856 337.449890,266.232910 
	C339.684692,266.232025 343.353241,269.338776 343.880493,271.650879 
	C345.306335,277.903503 345.396912,284.460602 345.559326,290.968201 
z"/>
<path fill="#0B0B0B" opacity="1.000000" stroke="none" 
	d="
M311.198608,215.008667 
	C311.946808,218.950851 312.566772,222.505600 313.262543,226.495117 
	C308.257172,226.495117 303.879150,226.495117 298.414124,226.495117 
	C299.345306,222.342087 299.811462,218.265396 301.268860,214.580780 
	C302.031769,212.651871 304.483490,210.284348 306.267731,210.202972 
	C307.798187,210.133163 309.464203,213.034073 311.198608,215.008667 
z"/>
<path fill="#040404" opacity="1.000000" stroke="none" 
	d="
M189.324539,243.973770 
	C187.940201,244.058075 186.874786,243.993195 185.409058,243.951141 
	C178.882660,241.397552 177.126358,235.776367 175.985336,230.124390 
	C174.022949,220.403641 174.002243,210.689911 178.694397,201.566910 
	C179.646301,199.716095 181.280914,198.216415 182.800552,196.281281 
	C190.455536,194.304123 193.885300,195.802292 196.676254,202.835968 
	C201.269547,214.411728 201.496979,226.126617 195.968323,237.453598 
	C194.725555,239.999725 191.796310,241.722672 189.324539,243.973770 
z"/>
<path fill="#F1F1F1" opacity="1.000000" stroke="none" 
	d="
M406.258759,226.003891 
	C405.779205,225.816910 405.494415,225.438797 405.209625,225.060669 
	C405.576263,224.885239 405.942871,224.709808 406.309509,224.534378 
	C406.357483,224.960510 406.405487,225.386642 406.258759,226.003891 
z"/>
<path fill="#F9F9F9" opacity="1.000000" stroke="none" 
	d="
M371.999390,215.999390 
	C372.089203,215.964050 372.179596,215.929337 372.135620,215.947754 
	C372.001221,216.000900 372.000000,216.000000 371.999390,215.999390 
z"/>
</svg>